<svg width="779" height="188" viewBox="0 0 779 188" fill="none" xmlns="http://www.w3.org/2000/svg">
<path d="M702.144 187.332C677.044 187.332 657.83 180.893 644.501 168.014C631.346 154.963 624.768 135.73 624.768 110.315V54.5493C624.768 51.626 627.157 49.2562 630.104 49.2562H652.667C655.614 49.2562 658.003 51.626 658.003 54.5493V110.058C658.003 126.371 661.725 138.649 669.168 146.892C676.784 154.963 687.776 158.998 702.144 158.998C716.511 158.998 727.416 154.963 734.86 146.892C742.303 138.649 746.024 126.371 746.024 110.058V54.5493C746.024 51.626 748.413 49.2562 751.36 49.2562H773.664C776.611 49.2562 779 51.626 779 54.5493V110.315C779 135.73 772.509 154.963 759.526 168.014C746.544 180.893 727.416 187.332 702.144 187.332Z" fill="url(#paint0_linear_1797_21610)"/>
<path d="M511.534 187.332C498.205 187.332 486.088 185.186 475.183 180.893C464.451 176.428 455.19 170.074 447.4 161.832C439.784 153.589 433.898 143.715 429.744 132.21C425.59 120.705 423.512 107.911 423.512 93.8301C423.512 79.5773 425.59 66.7841 429.744 55.4505C433.898 43.9452 439.784 34.1571 447.4 26.0862C455.19 17.8435 464.451 11.5757 475.183 7.2827C486.088 2.81795 498.205 0.585571 511.534 0.585571C524.862 0.585571 536.893 2.81795 547.625 7.2827C558.53 11.5757 567.791 17.7577 575.408 25.8286C583.197 33.8995 589.169 43.6876 593.323 55.1929C597.478 66.5265 599.555 79.3197 599.555 93.5726C599.555 107.825 597.478 120.705 593.323 132.21C589.169 143.715 583.197 153.589 575.408 161.832C567.791 170.074 558.53 176.428 547.625 180.893C536.893 185.186 524.862 187.332 511.534 187.332ZM511.534 158.998C522.785 158.998 532.306 156.423 540.095 151.271C548.058 146.119 554.116 138.649 558.271 128.861C562.598 119.073 564.762 107.396 564.762 93.8301C564.762 80.0925 562.685 68.4154 558.53 58.799C554.376 49.0109 548.317 41.6269 540.355 36.647C532.392 31.4954 522.785 28.9196 511.534 28.9196C500.455 28.9196 490.935 31.4954 482.972 36.647C475.01 41.6269 468.865 49.0109 464.537 58.799C460.383 68.4154 458.305 80.0925 458.305 93.8301C458.305 107.396 460.383 119.073 464.537 128.861C468.865 138.649 475.01 146.119 482.972 151.271C490.935 156.423 500.455 158.998 511.534 158.998Z" fill="url(#paint1_linear_1797_21610)"/>
<path d="M280.907 184.756C277.96 184.756 275.571 182.386 275.571 179.463V162.284C275.571 161.154 275.936 160.052 276.613 159.142L375.195 26.5569C376.705 24.5269 379.951 25.5859 379.951 28.1085C379.951 29.552 378.771 30.7223 377.316 30.7223H280.907C277.96 30.7223 275.571 28.3525 275.571 25.4292V8.45417C275.571 5.53086 277.96 3.16106 280.907 3.16106H405.773C408.72 3.16106 411.109 5.53087 411.109 8.45418V25.6302C411.109 26.7626 410.743 27.8652 410.064 28.776L311.372 161.265C309.897 163.246 306.729 162.21 306.729 159.748C306.729 158.338 307.881 157.195 309.303 157.195H409.668C412.614 157.195 415.003 159.565 415.003 162.488V179.463C415.003 182.386 412.615 184.756 409.668 184.756H280.907Z" fill="url(#paint2_linear_1797_21610)"/>
<path d="M222.952 184.756C220.006 184.756 217.617 182.386 217.617 179.463V8.45418C217.617 5.53087 220.006 3.16106 222.952 3.16106H245.516C248.463 3.16106 250.852 5.53087 250.852 8.45418V179.463C250.852 182.386 248.463 184.756 245.516 184.756H222.952Z" fill="url(#paint3_linear_1797_21610)"/>
<path d="M5.33561 184.756C2.38883 184.756 0 182.387 0 179.463V8.45444C0 5.53113 2.38884 3.16131 5.33562 3.16131H24.6048C26.5628 3.16131 28.3636 4.22522 29.2962 5.9331L94.8688 126.007C95.7627 127.644 94.568 129.634 92.6913 129.634C90.8164 129.634 89.6215 127.647 90.5121 126.01L155.836 5.94044C156.767 4.22847 158.57 3.16131 160.531 3.16131H179.276C182.222 3.16131 184.611 5.53112 184.611 8.45443V179.463C184.611 182.387 182.222 184.756 179.276 184.756H159.827C156.881 184.756 154.492 182.387 154.492 179.463V54.2086C154.492 53.0451 155.443 52.1018 156.615 52.1018C158.23 52.1018 159.254 53.8185 158.477 55.2225L103.562 154.449C102.625 156.143 100.832 157.195 98.885 157.195H85.7164C83.7743 157.195 81.9856 156.148 81.0464 154.462L25.7834 55.2474C24.9318 53.7186 26.0465 51.8443 27.8072 51.8443C29.0842 51.8443 30.1194 52.8712 30.1194 54.1381V179.463C30.1194 182.387 27.7306 184.756 24.7838 184.756H5.33561Z" fill="url(#paint4_linear_1797_21610)"/>
<path d="M656.104 16.8092C656.104 25.7693 648.978 33.0329 640.186 33.0329C631.395 33.0329 624.269 25.7693 624.269 16.8092C624.269 7.84915 631.395 0.585571 640.186 0.585571C648.978 0.585571 656.104 7.84915 656.104 16.8092Z" fill="#1C2024"/>
<path d="M778.822 16.8092C778.822 25.7693 771.695 33.0329 762.904 33.0329C754.113 33.0329 746.986 25.7693 746.986 16.8092C746.986 7.84915 754.113 0.585571 762.904 0.585571C771.695 0.585571 778.822 7.84915 778.822 16.8092Z" fill="#1C2024"/>
<defs>
<linearGradient id="paint0_linear_1797_21610" x1="779" y1="0.585571" x2="694.33" y2="353.781" gradientUnits="userSpaceOnUse">
<stop stop-color="#6EE7B7"/>
<stop offset="1" stop-color="#4F46E5"/>
</linearGradient>
<linearGradient id="paint1_linear_1797_21610" x1="779" y1="0.585571" x2="694.33" y2="353.781" gradientUnits="userSpaceOnUse">
<stop stop-color="#6EE7B7"/>
<stop offset="1" stop-color="#4F46E5"/>
</linearGradient>
<linearGradient id="paint2_linear_1797_21610" x1="779" y1="0.585571" x2="694.33" y2="353.781" gradientUnits="userSpaceOnUse">
<stop stop-color="#6EE7B7"/>
<stop offset="1" stop-color="#4F46E5"/>
</linearGradient>
<linearGradient id="paint3_linear_1797_21610" x1="779" y1="0.585571" x2="694.33" y2="353.781" gradientUnits="userSpaceOnUse">
<stop stop-color="#6EE7B7"/>
<stop offset="1" stop-color="#4F46E5"/>
</linearGradient>
<linearGradient id="paint4_linear_1797_21610" x1="779" y1="0.585571" x2="694.33" y2="353.781" gradientUnits="userSpaceOnUse">
<stop stop-color="#6EE7B7"/>
<stop offset="1" stop-color="#4F46E5"/>
</linearGradient>
</defs>
</svg>
